<svg xmlns="http://www.w3.org/2000/svg" width="200.355" height="174.464" viewBox="0 0 200.355 174.464">
  <g id="Grupo_1174" data-name="Grupo 1174" transform="translate(-90 -90.069)">
    <g id="Elipse_99" data-name="Elipse 99" transform="translate(179.169 222.2)" fill="none" stroke="#d7070b" stroke-width="1" opacity="0.234">
      <circle cx="6.854" cy="6.854" r="6.854" stroke="none"/>
      <circle cx="6.854" cy="6.854" r="6.354" fill="none"/>
    </g>
    <circle id="Elipse_97" data-name="Elipse 97" cx="23.748" cy="23.748" r="23.748" transform="translate(90 174.875)" fill="#d7070b" opacity="0.119"/>
    <circle id="Elipse_98" data-name="Elipse 98" cx="17.515" cy="17.515" r="17.515" transform="translate(238.57 206.969)" fill="#d7070b" opacity="0.119"/>
    <g id="Grupo_1173" data-name="Grupo 1173" transform="translate(212.018 223.558)">
      <path id="Caminho_702" data-name="Caminho 702" d="M70.245,0H90.8a10.237,10.237,0,0,1,10.245,10.23V35.837a5.154,5.154,0,0,0-5.156-5.148H70.245A10.237,10.237,0,0,1,60,20.459V10.23A10.28,10.28,0,0,1,70.245,0Z" transform="translate(-60 0)" fill="#e09c1d"/>
      <ellipse id="Elipse_90" data-name="Elipse 90" cx="3.046" cy="5.331" rx="3.046" ry="5.331" transform="translate(21.982 7.78)" fill="#fff"/>
      <ellipse id="Elipse_101" data-name="Elipse 101" cx="3.046" cy="5.331" rx="3.046" ry="5.331" transform="translate(11.047 7.78)" fill="#fff"/>
      <path id="Retângulo_774" data-name="Retângulo 774" d="M.762,0H15.992a.762.762,0,0,1,.762.762v0a3.808,3.808,0,0,1-3.808,3.808H3.808A3.808,3.808,0,0,1,0,.762v0A.762.762,0,0,1,.762,0Z" transform="translate(11.321 21.488)" fill="#fff"/>
    </g>
    <g id="Grupo_1169" data-name="Grupo 1169" transform="translate(124.565 225.611)">
      <path id="Caminho_702-2" data-name="Caminho 702" d="M93.453,0H71.127A11.119,11.119,0,0,0,60,11.11V38.922a5.6,5.6,0,0,1,5.6-5.591H93.453a11.119,11.119,0,0,0,11.127-11.11V11.11A11.165,11.165,0,0,0,93.453,0Z" transform="translate(-60 0)" fill="#9fb74f"/>
      <ellipse id="Elipse_90-2" data-name="Elipse 90" cx="3.046" cy="3.808" rx="3.046" ry="3.808" transform="translate(13.481 10.297)" fill="#fff"/>
      <ellipse id="Elipse_100" data-name="Elipse 100" cx="3.046" cy="3.808" rx="3.046" ry="3.808" transform="translate(24.417 10.297)" fill="#fff"/>
      <path id="Retângulo_774-2" data-name="Retângulo 774" d="M.762,0H17.515a.762.762,0,0,1,.762.762v0a3.808,3.808,0,0,1-3.808,3.808H3.808A3.808,3.808,0,0,1,0,.762v0A.762.762,0,0,1,.762,0Z" transform="translate(13.481 20.959)" fill="#fff"/>
    </g>
    <g id="Grupo_1172" data-name="Grupo 1172" transform="translate(242.125 165.352)">
      <path id="Caminho_702-3" data-name="Caminho 702" d="M70.245,0H90.8a10.237,10.237,0,0,1,10.245,10.23V35.837a5.154,5.154,0,0,0-5.156-5.148H70.245A10.237,10.237,0,0,1,60,20.459V10.23A10.28,10.28,0,0,1,70.245,0Z" transform="translate(-60 0)" fill="#d19dd9"/>
      <ellipse id="Elipse_95" data-name="Elipse 95" cx="3.046" cy="3.808" rx="3.046" ry="3.808" transform="translate(11.676 8.109)" fill="#fff"/>
      <ellipse id="Elipse_102" data-name="Elipse 102" cx="3.046" cy="3.808" rx="3.046" ry="3.808" transform="translate(21.049 8.109)" fill="#fff"/>
      <path id="Retângulo_774-3" data-name="Retângulo 774" d="M.508,0H17.769a.508.508,0,0,1,.508.508v0a2.538,2.538,0,0,1-2.538,2.538H2.538A2.538,2.538,0,0,1,0,.508v0A.508.508,0,0,1,.508,0Z" transform="translate(10.153 20.294)" fill="#fff"/>
    </g>
    <g id="Grupo_1166" data-name="Grupo 1166" transform="translate(117.766 91.82)" opacity="0.806">
      <g id="Grupo_1168" data-name="Grupo 1168" transform="translate(0 26.967)">
        <path id="Caminho_702-4" data-name="Caminho 702" d="M136.206,0H85.347A25.328,25.328,0,0,0,60,25.309V88.664A12.752,12.752,0,0,1,72.756,75.927h63.45a25.328,25.328,0,0,0,25.347-25.309V25.309A25.434,25.434,0,0,0,136.206,0Z" transform="translate(-60)" fill="#d4060b"/>
        <ellipse id="Elipse_91" data-name="Elipse 91" cx="7.404" cy="9.049" rx="7.404" ry="9.049" transform="translate(57.006 19.398)" fill="#fff"/>
        <ellipse id="Elipse_103" data-name="Elipse 103" cx="7.404" cy="9.049" rx="7.404" ry="9.049" transform="translate(30.448 19.398)" fill="#fff"/>
        <path id="Retângulo_774-4" data-name="Retângulo 774" d="M1,0H40.132a1,1,0,0,1,1,1V6.517a5,5,0,0,1-5,5H5a5,5,0,0,1-5-5V1A1,1,0,0,1,1,0Z" transform="translate(30.682 49.013)" fill="#fff"/>
      </g>
      <line id="Linha_89" data-name="Linha 89" x1="4.241" y2="22.617" transform="translate(96.987)" fill="none" stroke="#d7070b" stroke-linecap="round" stroke-width="3"/>
      <line id="Linha_91" data-name="Linha 91" x1="22.617" y2="2.827" transform="translate(111.122 35.339)" fill="none" stroke="#d7070b" stroke-linecap="round" stroke-width="3"/>
      <line id="Linha_90" data-name="Linha 90" x1="14.136" y2="18.376" transform="translate(106.882 11.308)" fill="none" stroke="#d7070b" stroke-linecap="round" stroke-width="3"/>
    </g>
    <g id="Elipse_94" data-name="Elipse 94" transform="translate(279.693 129.292)" fill="none" stroke="#d7070b" stroke-width="1" opacity="0.234">
      <ellipse cx="5.331" cy="6.092" rx="5.331" ry="6.092" stroke="none"/>
      <ellipse cx="5.331" cy="6.092" rx="4.831" ry="5.592" fill="none"/>
    </g>
  </g>
</svg>
